<svg version="1.1" xmlns="http://www.w3.org/2000/svg" xmlns:xlink="http://www.w3.org/1999/xlink" width="48" height="48" viewBox="0 0 48 48">
  <g><path stroke="black" fill="#56439E" fill-rule="evenodd" d="M35.0,28.5C32.8,30.648242542034286 31.0,31.83242617936 31.0,31.13151919405714C31.0,30.430612208754287 30.4375,29.294642857142858 29.75,28.607142857142858C29.0625,27.919642857142858 28.05,27.276785714285715 27.5,27.17857142857143C26.95,27.080357142857142 26.493109251467324,26.6625 26.484687225482936,26.25C26.476265199498553,25.8375 26.112207552029826,24.9375 25.67567023110799,24.25C25.168556794859388,23.45135010064045 22.438656631542784,23.0 18.11529703233454,23.0C12.287701324406997,23.0 11.03935000176661,22.670788600176458 9.120066914868412,20.62780537417752C7.159513285832558,18.540891669193652 7.088255843301211,18.180110663622028 8.527540356394695,17.62780537417752C9.427359375436959,17.282512418379884 13.065893734117862,17.0 16.61317226457448,17.0C21.423656997179048,17.0 23.209054659989775,17.381212774716083 23.63837360052304,18.5C23.95495580483813,19.325 24.88856858457974,20.0 25.713068666615513,20.0C26.537568748651285,20.0 28.097084853833135,18.875 29.178660011464068,17.5C30.260235169095004,16.125 31.80898623575906,15.0 32.62032904849531,15.0C33.43167186123156,15.0 35.19901079416676,16.19071022707581 36.54774889946243,17.64602272683514C37.89648700475809,19.10133522659447 39.0,21.260008732125897 39.0,22.443074961349424C39.0,23.63496013181319 37.21639947980026,26.335743794250195 35.0,28.5z"/></g>
  <g><path stroke="black" fill="#9B72FE" fill-rule="evenodd" d="M15.437091204766002,16.984687225482936C11.6216910421447,16.976265199498553 7.825,16.533155948031233 7.0,16.0C5.841734167613028,15.251471129771563 6.161822337643049,15.027136950198502 8.404987562112089,15.015312774517062C11.246451561957256,15.000334845490631 11.270396274040861,14.956265862824736 9.5,13.0C7.71568499787277,11.028354115759406 7.75336650103443,11.0 12.157921233121908,11.0C15.816876650277113,11.0 17.14620652402597,11.543169005382696 19.5,14.0L22.374182409532004,17.0L15.437091204766002,16.984687225482936zM36.81554496098039,15.0L31.568320329283356,15.0L37.034160164641676,9.45456730111787L42.5,3.9091346022357403L42.8130879082188,8.068971202151806C42.98528625773913,10.356881332105642 42.886909416091555,12.8523260466026 42.594472704557504,13.614403901033935C42.23483552861761,14.55160335857234 40.36470050643712,15.0 36.81554496098039,15.0zM10.828643553590425,10.0C9.238366323143108,10.0 7.690767011598279,9.357726686146352 7.3895339723796925,8.572725969214114C7.088300933161106,7.787725252281875 6.989924091513526,6.213105427796468 7.170918768718404,5.073570803690984C7.469126599778819,3.1960672554066183 7.791773400666593,3.3299697639335912 10.610028349929136,6.500844834476871L13.720056699858272,10.0L10.828643553590425,10.0z"/></g>
  <g><path stroke="black" fill="#382D65" fill-rule="evenodd" d="M18.694478746182376,44.00070243531346C16.62063183923993,45.81340656281977 16.061738793995318,46.00268621830648 16.551467550366706,44.72647353642031C17.095073254994144,43.30985977795625 16.63184335294622,43.0 13.970447927751362,43.0L10.726918247134066,43.0L17.113459123567033,37.04427935979005C23.06784717537577,31.491559584545534 23.319603947863257,31.085562504449555 20.834029317243882,31.044279359790053C18.947732825486085,31.01294968254735 17.241546738143157,29.83018339842765 15.000000000000002,27.0L11.83194136551224,23.0L18.293525967313947,23.0C22.47911565750615,23.000000000000004 25.147418682317266,23.472702358300513 25.86887934359537,24.34200927429577C26.481452169559212,25.080114375158438 26.70340054454892,25.963266122117716 26.362097954683612,26.304568711983052C26.0207953648183,26.64587130184839 26.924699538251406,27.46419888755394 28.370773895646067,28.123074457995394C29.81684825304073,28.78195002843684 31.0,30.05321461120193 31.0,30.948106864140033C31.0,31.842999117078136 28.8625,34.59417036244141 26.25,37.061820742725075C23.6375,39.52947112300875 20.237515435782072,42.65196788467352 18.694478746182376,44.00070243531346zM39.4375,17.604166666666664C38.921875,17.730208333333334 37.9375,17.60833333333333 37.25,17.333333333333332C36.5625,17.058333333333334 36.0,16.420833333333334 36.0,15.916666666666666C36.0,15.4125 37.1625,15.0 38.58333333333333,15.0C40.13304093567251,15.0 41.00828853046595,15.47513440860215 40.77083333333333,16.1875C40.553125,16.840625 39.953125,17.478125 39.4375,17.604166666666664z"/></g>
  <!-- <g><path stroke="black" fill="#9B72FE" fill-rule="evenodd" d="M38.80687193058736,19.526461402745966C38.498984825743754,19.83434850758958 37.939824282205144,19.27934850758958 37.56429294494602,18.29312806941263C37.021608307094844,16.867929615297555 37.13647186057138,16.75306606182102 38.124087681025316,17.733333333333334C38.80750612312806,18.411666666666665 39.11475903543098,19.21857429790235 38.80687193058736,19.526461402745966z"/></g> -->
</svg>