<svg xmlns="http://www.w3.org/2000/svg" viewBox="0 0 32 32" shape-rendering="crispEdges">
  <title>Fledge Pixel Mascot - 32x32</title>
  <desc>A pixel art fledgling swift mascot</desc>

  <!-- Color definitions as CSS -->
  <style>
    .phantom { fill: #0A0A0F; }
    .purple { fill: #7B2CBF; }
    .purple-light { fill: #9D4EDD; }
    .purple-dark { fill: #5B21B6; }
    .gold { fill: #FFD700; }
    .lilac { fill: #E0AAFF; }
    .white { fill: #FFFFFF; }
  </style>

  <!-- Background (optional - remove for transparency) -->
  <rect width="32" height="32" class="phantom"/>

  <!-- Pixel art fledgling - sleek young swift -->
  <!-- Each rect is 1x1 pixel -->

  <!-- Head outline and shape (rows 6-11) -->
  <!-- Row 6 - top of head -->
  <rect x="14" y="6" width="1" height="1" class="purple-dark"/>
  <rect x="15" y="6" width="1" height="1" class="purple-dark"/>
  <rect x="16" y="6" width="1" height="1" class="purple-dark"/>

  <!-- Row 7 -->
  <rect x="13" y="7" width="1" height="1" class="purple-dark"/>
  <rect x="14" y="7" width="1" height="1" class="purple"/>
  <rect x="15" y="7" width="1" height="1" class="purple-light"/>
  <rect x="16" y="7" width="1" height="1" class="purple"/>
  <rect x="17" y="7" width="1" height="1" class="purple-dark"/>

  <!-- Row 8 - eye row -->
  <rect x="12" y="8" width="1" height="1" class="purple-dark"/>
  <rect x="13" y="8" width="1" height="1" class="purple"/>
  <rect x="14" y="8" width="1" height="1" class="purple-light"/>
  <rect x="15" y="8" width="1" height="1" class="gold"/>
  <rect x="16" y="8" width="1" height="1" class="purple-light"/>
  <rect x="17" y="8" width="1" height="1" class="purple"/>
  <rect x="18" y="8" width="1" height="1" class="purple-dark"/>

  <!-- Row 9 - beak row -->
  <rect x="12" y="9" width="1" height="1" class="purple-dark"/>
  <rect x="13" y="9" width="1" height="1" class="purple"/>
  <rect x="14" y="9" width="1" height="1" class="purple"/>
  <rect x="15" y="9" width="1" height="1" class="purple-light"/>
  <rect x="16" y="9" width="1" height="1" class="purple"/>
  <rect x="17" y="9" width="1" height="1" class="purple"/>
  <rect x="18" y="9" width="1" height="1" class="purple-dark"/>
  <rect x="19" y="9" width="1" height="1" class="gold"/>

  <!-- Row 10 - neck -->
  <rect x="13" y="10" width="1" height="1" class="purple-dark"/>
  <rect x="14" y="10" width="1" height="1" class="purple"/>
  <rect x="15" y="10" width="1" height="1" class="purple"/>
  <rect x="16" y="10" width="1" height="1" class="purple"/>
  <rect x="17" y="10" width="1" height="1" class="purple-dark"/>

  <!-- Body (rows 11-18) -->
  <!-- Row 11 - start of wings -->
  <rect x="8" y="11" width="1" height="1" class="purple-dark"/>
  <rect x="9" y="11" width="1" height="1" class="purple-dark"/>
  <rect x="13" y="11" width="1" height="1" class="purple-dark"/>
  <rect x="14" y="11" width="1" height="1" class="purple"/>
  <rect x="15" y="11" width="1" height="1" class="purple-light"/>
  <rect x="16" y="11" width="1" height="1" class="purple"/>
  <rect x="17" y="11" width="1" height="1" class="purple-dark"/>
  <rect x="21" y="11" width="1" height="1" class="purple-dark"/>
  <rect x="22" y="11" width="1" height="1" class="purple-dark"/>

  <!-- Row 12 - wings extend -->
  <rect x="6" y="12" width="1" height="1" class="purple-dark"/>
  <rect x="7" y="12" width="1" height="1" class="purple"/>
  <rect x="8" y="12" width="1" height="1" class="purple"/>
  <rect x="9" y="12" width="1" height="1" class="purple-dark"/>
  <rect x="12" y="12" width="1" height="1" class="purple-dark"/>
  <rect x="13" y="12" width="1" height="1" class="purple"/>
  <rect x="14" y="12" width="1" height="1" class="purple-light"/>
  <rect x="15" y="12" width="1" height="1" class="purple-light"/>
  <rect x="16" y="12" width="1" height="1" class="purple-light"/>
  <rect x="17" y="12" width="1" height="1" class="purple"/>
  <rect x="18" y="12" width="1" height="1" class="purple-dark"/>
  <rect x="21" y="12" width="1" height="1" class="purple-dark"/>
  <rect x="22" y="12" width="1" height="1" class="purple"/>
  <rect x="23" y="12" width="1" height="1" class="purple"/>
  <rect x="24" y="12" width="1" height="1" class="purple-dark"/>

  <!-- Row 13 - wide wings -->
  <rect x="4" y="13" width="1" height="1" class="purple-dark"/>
  <rect x="5" y="13" width="1" height="1" class="purple"/>
  <rect x="6" y="13" width="1" height="1" class="purple-light"/>
  <rect x="7" y="13" width="1" height="1" class="purple"/>
  <rect x="8" y="13" width="1" height="1" class="purple-dark"/>
  <rect x="12" y="13" width="1" height="1" class="purple-dark"/>
  <rect x="13" y="13" width="1" height="1" class="purple"/>
  <rect x="14" y="13" width="1" height="1" class="purple-light"/>
  <rect x="15" y="13" width="1" height="1" class="lilac"/>
  <rect x="16" y="13" width="1" height="1" class="purple-light"/>
  <rect x="17" y="13" width="1" height="1" class="purple"/>
  <rect x="18" y="13" width="1" height="1" class="purple-dark"/>
  <rect x="22" y="13" width="1" height="1" class="purple-dark"/>
  <rect x="23" y="13" width="1" height="1" class="purple"/>
  <rect x="24" y="13" width="1" height="1" class="purple-light"/>
  <rect x="25" y="13" width="1" height="1" class="purple"/>
  <rect x="26" y="13" width="1" height="1" class="purple-dark"/>

  <!-- Row 14 - wing tips -->
  <rect x="3" y="14" width="1" height="1" class="purple-dark"/>
  <rect x="4" y="14" width="1" height="1" class="purple"/>
  <rect x="5" y="14" width="1" height="1" class="purple-dark"/>
  <rect x="12" y="14" width="1" height="1" class="purple-dark"/>
  <rect x="13" y="14" width="1" height="1" class="purple"/>
  <rect x="14" y="14" width="1" height="1" class="purple"/>
  <rect x="15" y="14" width="1" height="1" class="purple-light"/>
  <rect x="16" y="14" width="1" height="1" class="purple"/>
  <rect x="17" y="14" width="1" height="1" class="purple"/>
  <rect x="18" y="14" width="1" height="1" class="purple-dark"/>
  <rect x="25" y="14" width="1" height="1" class="purple-dark"/>
  <rect x="26" y="14" width="1" height="1" class="purple"/>
  <rect x="27" y="14" width="1" height="1" class="purple-dark"/>

  <!-- Row 15 - body continues -->
  <rect x="13" y="15" width="1" height="1" class="purple-dark"/>
  <rect x="14" y="15" width="1" height="1" class="purple"/>
  <rect x="15" y="15" width="1" height="1" class="purple"/>
  <rect x="16" y="15" width="1" height="1" class="purple"/>
  <rect x="17" y="15" width="1" height="1" class="purple-dark"/>

  <!-- Row 16 - body narrows -->
  <rect x="13" y="16" width="1" height="1" class="purple-dark"/>
  <rect x="14" y="16" width="1" height="1" class="purple"/>
  <rect x="15" y="16" width="1" height="1" class="purple-light"/>
  <rect x="16" y="16" width="1" height="1" class="purple"/>
  <rect x="17" y="16" width="1" height="1" class="purple-dark"/>

  <!-- Row 17 - tail start -->
  <rect x="14" y="17" width="1" height="1" class="purple-dark"/>
  <rect x="15" y="17" width="1" height="1" class="purple"/>
  <rect x="16" y="17" width="1" height="1" class="purple-dark"/>

  <!-- Tail (rows 18-22) - forked -->
  <!-- Row 18 -->
  <rect x="13" y="18" width="1" height="1" class="purple-dark"/>
  <rect x="14" y="18" width="1" height="1" class="purple"/>
  <rect x="16" y="18" width="1" height="1" class="purple"/>
  <rect x="17" y="18" width="1" height="1" class="purple-dark"/>

  <!-- Row 19 -->
  <rect x="12" y="19" width="1" height="1" class="purple-dark"/>
  <rect x="13" y="19" width="1" height="1" class="purple"/>
  <rect x="17" y="19" width="1" height="1" class="purple"/>
  <rect x="18" y="19" width="1" height="1" class="purple-dark"/>

  <!-- Row 20 -->
  <rect x="11" y="20" width="1" height="1" class="purple-dark"/>
  <rect x="12" y="20" width="1" height="1" class="purple"/>
  <rect x="18" y="20" width="1" height="1" class="purple"/>
  <rect x="19" y="20" width="1" height="1" class="purple-dark"/>

  <!-- Row 21 -->
  <rect x="10" y="21" width="1" height="1" class="purple-dark"/>
  <rect x="11" y="21" width="1" height="1" class="purple"/>
  <rect x="19" y="21" width="1" height="1" class="purple"/>
  <rect x="20" y="21" width="1" height="1" class="purple-dark"/>

  <!-- Row 22 - tail tips -->
  <rect x="10" y="22" width="1" height="1" class="purple-dark"/>
  <rect x="20" y="22" width="1" height="1" class="purple-dark"/>

</svg>
